<svg viewBox="0 0 330 200" xmlns="http://www.w3.org/2000/svg"><g><g><g><g><g><line x1="58" y1="178" x2="53" y2="178" style="visibility: inherit;" fill="rgb(0, 0, 0)" stroke="rgb(204, 204, 204)" stroke-width="1px"></line><line x1="58" y1="158.22222222222223" x2="53" y2="158.22222222222223" style="visibility: inherit;" fill="rgb(0, 0, 0)" stroke="rgb(204, 204, 204)" stroke-width="1px"></line><line x1="58" y1="138.44444444444446" x2="53" y2="138.44444444444446" style="visibility: inherit;" fill="rgb(0, 0, 0)" stroke="rgb(204, 204, 204)" stroke-width="1px"></line><line x1="58" y1="118.66666666666667" x2="53" y2="118.66666666666667" style="visibility: inherit;" fill="rgb(0, 0, 0)" stroke="rgb(204, 204, 204)" stroke-width="1px"></line><line x1="58" y1="98.8888888888889" x2="53" y2="98.8888888888889" style="visibility: inherit;" fill="rgb(0, 0, 0)" stroke="rgb(204, 204, 204)" stroke-width="1px"></line><line x1="58" y1="79.1111111111111" x2="53" y2="79.1111111111111" style="visibility: inherit;" fill="rgb(0, 0, 0)" stroke="rgb(204, 204, 204)" stroke-width="1px"></line><line x1="58" y1="59.33333333333334" x2="53" y2="59.33333333333334" style="visibility: inherit;" fill="rgb(0, 0, 0)" stroke="rgb(204, 204, 204)" stroke-width="1px"></line><line x1="58" y1="39.55555555555554" x2="53" y2="39.55555555555554" style="visibility: inherit;" fill="rgb(0, 0, 0)" stroke="rgb(204, 204, 204)" stroke-width="1px"></line><line x1="58" y1="19.7777777777778" x2="53" y2="19.7777777777778" style="visibility: inherit;" fill="rgb(0, 0, 0)" stroke="rgb(204, 204, 204)" stroke-width="1px"></line><line x1="58" y1="0" x2="53" y2="0" style="visibility: inherit;" fill="rgb(0, 0, 0)" stroke="rgb(204, 204, 204)" stroke-width="1px"></line></g><g transform="translate(48, 0)"><text x="0" y="178" dx="0em" dy="0.3em" style="text-anchor: end; visibility: hidden; font-family: &quot;Helvetica Neue&quot;, sans-serif; font-size: 12px; font-weight: 200;" fill="rgb(50, 49, 63)" stroke="none" stroke-width="1px">-500</text><text x="0" y="158.22222222222223" dx="0em" dy="0.3em" style="text-anchor: end; visibility: inherit; font-family: &quot;Helvetica Neue&quot;, sans-serif; font-size: 12px; font-weight: 200;" fill="rgb(50, 49, 63)" stroke="none" stroke-width="1px">-400</text><text x="0" y="138.44444444444446" dx="0em" dy="0.3em" style="text-anchor: end; visibility: hidden; font-family: &quot;Helvetica Neue&quot;, sans-serif; font-size: 12px; font-weight: 200;" fill="rgb(50, 49, 63)" stroke="none" stroke-width="1px">-300</text><text x="0" y="118.66666666666667" dx="0em" dy="0.3em" style="text-anchor: end; visibility: inherit; font-family: &quot;Helvetica Neue&quot;, sans-serif; font-size: 12px; font-weight: 200;" fill="rgb(50, 49, 63)" stroke="none" stroke-width="1px">-200</text><text x="0" y="98.8888888888889" dx="0em" dy="0.3em" style="text-anchor: end; visibility: hidden; font-family: &quot;Helvetica Neue&quot;, sans-serif; font-size: 12px; font-weight: 200;" fill="rgb(50, 49, 63)" stroke="none" stroke-width="1px">-100</text><text x="0" y="79.1111111111111" dx="0em" dy="0.3em" style="text-anchor: end; visibility: inherit; font-family: &quot;Helvetica Neue&quot;, sans-serif; font-size: 12px; font-weight: 200;" fill="rgb(50, 49, 63)" stroke="none" stroke-width="1px">0</text><text x="0" y="59.33333333333334" dx="0em" dy="0.3em" style="text-anchor: end; visibility: hidden; font-family: &quot;Helvetica Neue&quot;, sans-serif; font-size: 12px; font-weight: 200;" fill="rgb(50, 49, 63)" stroke="none" stroke-width="1px">100</text><text x="0" y="39.55555555555554" dx="0em" dy="0.3em" style="text-anchor: end; visibility: inherit; font-family: &quot;Helvetica Neue&quot;, sans-serif; font-size: 12px; font-weight: 200;" fill="rgb(50, 49, 63)" stroke="none" stroke-width="1px">200</text><text x="0" y="19.7777777777778" dx="0em" dy="0.3em" style="text-anchor: end; visibility: hidden; font-family: &quot;Helvetica Neue&quot;, sans-serif; font-size: 12px; font-weight: 200;" fill="rgb(50, 49, 63)" stroke="none" stroke-width="1px">300</text><text x="0" y="0" dx="0em" dy="0.3em" style="text-anchor: end; visibility: hidden; font-family: &quot;Helvetica Neue&quot;, sans-serif; font-size: 12px; font-weight: 200;" fill="rgb(50, 49, 63)" stroke="none" stroke-width="1px">400</text></g><line x1="58" y1="0" x2="58" y2="178" fill="rgb(0, 0, 0)" stroke="rgb(204, 204, 204)" stroke-width="1px"></line></g></g><g transform="translate(58, 0)" clip-path="url(#clip_0)"><clipPath id="clip_0"><rect width="272" height="178"></rect></clipPath><g><g><g><line x1="0" y1="0" x2="0" y2="178" fill="rgb(0, 0, 0)" stroke="rgb(60, 60, 60)" stroke-width="1px" opacity="0.25"></line><line x1="34" y1="0" x2="34" y2="178" fill="rgb(0, 0, 0)" stroke="rgb(60, 60, 60)" stroke-width="1px" opacity="0.25"></line><line x1="68" y1="0" x2="68" y2="178" fill="rgb(0, 0, 0)" stroke="rgb(60, 60, 60)" stroke-width="1px" opacity="0.25"></line><line x1="102" y1="0" x2="102" y2="178" fill="rgb(0, 0, 0)" stroke="rgb(60, 60, 60)" stroke-width="1px" opacity="0.25"></line><line x1="136" y1="0" x2="136" y2="178" fill="rgb(0, 0, 0)" stroke="rgb(60, 60, 60)" stroke-width="1px" opacity="0.25"></line><line x1="170" y1="0" x2="170" y2="178" fill="rgb(0, 0, 0)" stroke="rgb(60, 60, 60)" stroke-width="1px" opacity="0.25"></line><line x1="204" y1="0" x2="204" y2="178" fill="rgb(0, 0, 0)" stroke="rgb(60, 60, 60)" stroke-width="1px" opacity="0.25"></line><line x1="238" y1="0" x2="238" y2="178" fill="rgb(0, 0, 0)" stroke="rgb(60, 60, 60)" stroke-width="1px" opacity="0.25"></line><line x1="272" y1="0" x2="272" y2="178" fill="rgb(0, 0, 0)" stroke="rgb(60, 60, 60)" stroke-width="1px" opacity="0.25"></line></g><g><line x1="0" y1="178" x2="272" y2="178" fill="rgb(0, 0, 0)" stroke="rgb(60, 60, 60)" stroke-width="1px" opacity="0.25"></line><line x1="0" y1="158.22222222222223" x2="272" y2="158.22222222222223" fill="rgb(0, 0, 0)" stroke="rgb(60, 60, 60)" stroke-width="1px" opacity="0.25"></line><line x1="0" y1="138.44444444444446" x2="272" y2="138.44444444444446" fill="rgb(0, 0, 0)" stroke="rgb(60, 60, 60)" stroke-width="1px" opacity="0.25"></line><line x1="0" y1="118.66666666666667" x2="272" y2="118.66666666666667" fill="rgb(0, 0, 0)" stroke="rgb(60, 60, 60)" stroke-width="1px" opacity="0.25"></line><line x1="0" y1="98.8888888888889" x2="272" y2="98.8888888888889" fill="rgb(0, 0, 0)" stroke="rgb(60, 60, 60)" stroke-width="1px" opacity="0.25"></line><line x1="0" y1="79.1111111111111" x2="272" y2="79.1111111111111" fill="rgb(0, 0, 0)" stroke="rgb(60, 60, 60)" stroke-width="1px" opacity="0.25"></line><line x1="0" y1="59.33333333333334" x2="272" y2="59.33333333333334" fill="rgb(0, 0, 0)" stroke="rgb(60, 60, 60)" stroke-width="1px" opacity="0.25"></line><line x1="0" y1="39.55555555555554" x2="272" y2="39.55555555555554" fill="rgb(0, 0, 0)" stroke="rgb(60, 60, 60)" stroke-width="1px" opacity="0.25"></line><line x1="0" y1="19.7777777777778" x2="272" y2="19.7777777777778" fill="rgb(0, 0, 0)" stroke="rgb(60, 60, 60)" stroke-width="1px" opacity="0.25"></line><line x1="0" y1="0" x2="272" y2="0" fill="rgb(0, 0, 0)" stroke="rgb(60, 60, 60)" stroke-width="1px" opacity="0.25"></line></g></g></g><g><g><line x1="0" y1="79.1111111111111" x2="272" y2="79.1111111111111" fill="rgb(0, 0, 0)" stroke="rgb(153, 153, 153)" stroke-width="1.5px"></line></g></g><g><g><line x1="34" y1="0" x2="34" y2="178" fill="rgb(0, 0, 0)" stroke="rgb(153, 153, 153)" stroke-width="1.5px"></line></g></g><g><g><g><g><g><path stroke="rgb(204, 51, 17)" stroke-width="2px" d="M34.34,95.93260965983073L34.408,115.61092830571157L34.748,119.01315920100974L34.952,122.70759294621948L35.02,126.97264312745074L35.224000000000004,127.84715100960807L35.36,121.08291369397489L35.632000000000005,125.20534551676232L36.448,126.89007141836053L36.72,123.71125269117752L36.856,127.92677810932935L36.992000000000004,127.48540440779266L37.06,152.79255104653808L37.196000000000005,149.0619687076624L37.604000000000006,143.67115369841952L37.672000000000004,147.01049947776693L37.74,144.44161551255948L37.80800000000001,142.96205024756185L37.876000000000005,137.9679790501979L38.419999999999995,135.39748227675847L38.623999999999995,135.4439274783868L38.827999999999996,136.12833932571084L38.895999999999994,136.7409094592463L38.964,137.3180799036717L39.032,139.61825946706043L39.372,138.53788990106014L39.916,138.81915290291496L39.983999999999995,141.24678008447205L40.391999999999996,140.19311325247625L40.936,137.49733377506755L41.14,134.87892622875165L41.208,133.779656493134L41.684,132.83792742071495L41.888,135.46070106370001L42.024,131.83609569094955L42.568,131.76591713415212L42.772,129.09233720868352L42.84,138.4344164047289L43.452,134.28262968794547L43.588,136.0834668788287L43.656,134.81480634965274L43.724000000000004,136.36333832517482L44.2,134.44643745798805L44.54,132.40501830618712L44.676,132.44127086880061L44.744,130.14964999139784L45.016000000000005,134.04762374301592L45.356,132.32872334252687L45.424,131.6578532329969L45.628,132.41049291519565L46.036,135.22744283877122L46.104000000000006,134.84325476297875L46.24,141.05628681425128L46.444,136.46298700325823L46.580000000000005,151.18469397209725L46.648,146.91356380495793L46.784,144.18486242744265L46.919999999999995,146.1543802840527L46.988,144.15383219089404L47.464,141.58632361389164L48.007999999999996,138.40951417583364L48.076,140.99913888962465L48.144,139.91784159286632L48.416,137.04441215289032L49.096,135.79894711672054L49.164,136.53584237119824L49.3,134.05201409416094L49.571999999999996,132.834687354019L49.775999999999996,129.36762682539728L49.844,130.18668169991622L49.912,127.53010329763168L50.116,125.09578707209236L50.932,126.29851005492262L51.34,131.33454652329957L51.544,126.52768346871605L51.68,118.97383947987962L51.748,119.82296465509035L51.884,117.87577697084288L52.156,117.40814422543357L52.428000000000004,120.91272235758696L52.564,121.68331809540662L52.904,119.5987770622427L53.856,123.80451121509033L54.196000000000005,123.14356701606869L54.264,120.58763243533019L54.536,119.88300822003308L54.604000000000006,116.12641525413912L54.876000000000005,113.47351285930122L54.944,112.81639271486694L55.080000000000005,111.95283518909235L55.284,111.07541950398885L55.623999999999995,109.23769383685266L55.69199999999999,106.781907668784L55.76,106.96935683196499L56.099999999999994,104.26490679482262L56.168,101.77204067036138L56.236,102.7605740056138L56.44,101.12225685057884L57.052,99.86534555613132L57.187999999999995,98.34535483635041L57.596,96.52890086864551L58.004,96.25989399853505L58.071999999999996,94.79602405010725L58.48,95.37804826616897L58.684,95.71205574201375L58.956,94.61547021334579L59.228,93.84626525718281L59.364,92.95949434655364L59.636,92.57926062358486L59.704,92.05492890537664L59.772,91.84960979627665L59.908,94.96595613619444L60.248,96.11343091358141L60.588,95.2843311230434L60.656,94.90134879520376L60.724000000000004,95.59635339560333L61.744,95.4083647304881L62.22,94.02835500223571L62.628,93.88200015273347L62.696000000000005,92.799569652276L62.832,93.39594446108913L62.968,95.23968187421272L63.24,98.4968804916502L63.852,101.22798403250471L63.988,106.65260191990261L64.056,106.87636441302664L64.25999999999999,105.35807250155474L64.66799999999999,104.48107916118039L65.212,103.13403966555745L65.28,101.71225921436452L65.484,101.14983671253891L65.55199999999999,100.48696919188649L66.164,100.5899707823752L66.232,98.52174916789448L66.98,97.44421093756543L67.184,93.1179875463647L67.252,92.15831747071121L67.388,92.27180626539491L67.524,89.03860015574013L68.476,89.48982336449427L68.816,89.05281938267706L68.952,88.59092070911142L69.15599999999999,87.36221235485573L69.29199999999999,86.84447198305635L69.632,85.48847949729716L69.69999999999999,86.00237802889504L70.10799999999999,82.33681270180381L70.244,78.0392133510285L70.312,77.18956364555189L70.44800000000001,78.56090215671009L70.51599999999999,75.47379265575421L70.72,85.64794634065186L70.85600000000001,84.15444003379575L71.196,85.4320320217426L71.26400000000001,88.12009174393299L71.87599999999999,89.82793756017954L72.012,89.30700083470286L72.28399999999999,88.67696793100104L72.352,87.84690804928275L72.42,87.70541911401595L72.692,86.79653029482137L72.964,86.96688230679584L73.03200000000001,86.75026546387853L73.23599999999999,86.06460653595681L73.372,86.44101967016367L73.44,86.76411771570771L73.508,88.38235403133474L73.57600000000001,85.6632385882984L73.64399999999999,83.1328012247721L73.712,82.51043122973708L73.848,80.58262909211464L73.916,81.168170732919L74.256,82.07401554001615L74.324,81.77273912210589L74.596,78.28648653503443L74.80000000000001,79.63456711741796L74.936,81.51700344360206L75.34400000000001,78.7771167678209L75.48,82.02831988130833L75.82,91.84188169176215L76.092,91.56942098887764L76.16000000000001,92.47585274167538L76.296,94.65720295740856L77.112,95.8795282600294L77.588,92.39504792598494L77.65599999999999,94.21240612664928L77.79199999999999,96.50591054875291L77.86,97.20785410716665L77.928,98.24034041820757L77.996,100.49282369235078L78.132,100.19180412759174L78.336,100.21227210536887L78.60799999999999,96.7551837234012L78.676,96.30301783938603L78.94800000000001,95.96139329044729L79.152,95.72178266210855L79.42399999999999,97.77741430423758L79.628,96.50596929976278L79.696,94.22981358307399L79.76400000000001,92.27513120310303L79.832,91.4422728703372L79.9,86.97985473172841L80.036,86.96784442901377L80.104,87.26805345365007L80.172,83.75650433305998L80.37599999999999,83.0779093635923L80.444,80.45949378153443L80.512,77.8771080243057L80.648,74.78879913962398L80.78399999999999,74.20581711486902L80.852,73.63558934959488L81.328,75.08051821509189L81.53200000000001,76.01920006763424L81.804,77.96599082422543L82.008,78.07401943147741L82.14399999999999,80.41744179988196L82.28,81.71034105583833L82.55199999999999,83.07576275512305L82.824,84.49466012875828L83.028,83.99434319202484L83.096,84.53936772768428L83.164,85.00483675079313L83.232,84.93174546402861L83.64,83.70000522219836L84.048,84.06972474289542L84.184,82.30425389567823L84.25200000000001,81.16702943876005L84.524,80.75562204092861L84.728,80.37858279284023L84.796,76.33539039625505L85,72.2646842817354L85.068,72.50165586013188L85.136,69.26510421957254L85.272,70.76508740713732L85.408,71.8347859723822L85.816,72.83312118549537L86.02,72.69856948438677L86.088,74.20210600278993L86.29199999999999,73.77314536273082L86.36,74.18670475924952L86.428,71.91533640985433L86.564,72.69288766418916L86.632,70.62267276721585L87.04,67.56798592754991L87.312,69.4162755757437L87.38,70.0165054584494L87.51599999999999,72.66639226770177L87.652,74.11855637284769L87.788,71.26534609599628L87.85600000000001,72.19498754488788L87.92399999999999,73.07937479472515L87.992,73.30913520599925L88.06,73.62020942565685L88.26400000000001,78.44990381704075L88.4,80.6060127861817L88.536,81.72858996268796L88.74,77.6312506826645L88.87599999999999,80.33230423364202L88.944,80.81502865150765L89.012,81.13041734660452L89.42,83.08203792284756L89.488,83.97078334508883L89.62400000000001,84.14596910033752L89.828,84.49094193026208L90.1,84.17519904912074L90.304,81.44472960687872L90.508,77.50371182303076L90.57600000000001,77.75696411970442L90.712,73.95931907853343L90.848,72.42167678577619L90.98400000000001,72.85343373034551L91.324,73.63732609368468L91.528,73.27557979607381L91.664,73.88278292629658L92.684,73.83483218783626L92.956,75.8238777125334L93.092,79.1904313759238L93.16000000000001,81.51302026854442L93.432,82.50832890672696L93.568,83.93492885230299L93.636,85.22739815475869L93.83999999999999,86.28843425156121L93.976,87.52406812572852L94.112,86.96904724374998L94.316,87.09601114758622L94.452,86.81512359147023L94.52,86.61956968853417L94.65599999999999,85.72525254498979L94.928,88.40168331205709L95.19999999999999,89.57079235962033L95.676,88.23356452356323L95.744,87.02776406491533L95.812,86.37379902965442L95.88,86.17024853462084L96.01599999999999,86.14113791999398L96.22,86.28098650622788L96.288,85.82937619220853L96.35600000000001,84.841270068559L96.56,84.74551242314537L96.628,80.73532177590081L96.696,80.91459099506687L96.76400000000001,80.23210905373627L97.308,80.08398840719777L97.37599999999999,80.4871603844027L97.58,80.9568701012922L98.056,81.18986697323234L98.26,81.41322861368953L98.804,82.4234534915546L98.872,83.7795755498216L99.008,80.35969965286674L99.07600000000001,80.60148987541756L99.14399999999999,81.40085194514538L99.348,81.3644479424713L99.416,81.64359814298817L99.55199999999999,82.14823261496208L99.688,82.87365974104753L100.028,79.67544433625588L100.096,76.2486714736739L100.368,76.7808015087382L100.436,77.46453186351681L100.504,77.54382800890951L100.572,77.57425070876164L100.776,75.52906114042379L100.84400000000001,72.60337258904661L100.912,74.22521265015001L101.11600000000001,75.40501725364464L101.184,76.99193896233274L101.728,80.54767195002721L102,81.21207578757851L102.136,81.86111216096167L102.272,81.87443838859926L102.33999999999999,82.7770416514927L102.544,79.72757604944846L102.74799999999999,76.35349556723665L102.816,77.5932202767855L102.88399999999999,76.0772874519433L102.952,77.17557877104326L103.15599999999999,78.23891286516803L103.69999999999999,75.16734704369377L103.836,76.05046873300535L103.972,76.5831793430933L104.10799999999999,78.31886467747879L104.176,79.58777566768659L104.38,79.2912467963981L104.51599999999999,78.91077308963457L104.652,78.9457986971159L104.992,79.14453838108277L105.46799999999999,83.07694322888078L105.536,84.31933564774569L105.74,86.20716425367455L105.87599999999999,84.96304386299089L106.28399999999999,86.60848531454438L106.352,87.44323193869774L106.488,88.39921924529126L106.62400000000001,90.19280896835642L106.896,91.01982831127387L107.168,91.92605992085007L107.304,92.41469596026661L107.64399999999999,93.57193836550023L107.712,94.71547129106128L107.78,95.37364580386328L108.256,95.78105292996864L108.324,96.4493633762838L108.732,96.60638938433314L109.004,97.49487632601371L109.072,97.93767584067693L109.14,97.93899821074127L109.75200000000001,98.68067279957994L109.888,98.667697092792L110.092,98.4842214552717L110.5,99.73425551592987L110.568,100.18629295170791L110.83999999999999,99.84445282009271L111.044,98.77235249467726L111.112,98.33155186661963L111.18,96.82971034289841L111.38399999999999,96.32798707355623L112.132,95.75005884626042L112.336,95.49390124768206L112.54,96.30823606143915L112.60799999999999,97.75298450808955L112.676,98.81381384966527L112.88,99.95055257920959L112.94800000000001,99.48449630036562L113.01599999999999,98.67025258312927L114.036,97.35389149664512L114.24,96.99148788469053L114.37599999999999,96.79184843887607L114.444,96.62980705150873L114.58,95.52973957227378L114.648,95.2731110221442L114.852,91.39603358074213L115.056,87.42459672380014L115.12400000000001,87.32865381544187L115.26,87.58470939264595L115.396,88.42499396928669L115.53200000000001,88.16051538463147L115.668,88.09691978608984L115.872,87.29104021296294L116.008,86.52442455967679L116.14399999999999,85.40882956771236L116.28,85.1504327721951L116.416,85.88615951421714L116.55199999999999,88.03775673248158L117.232,89.93721687739713L117.504,90.96003057342001L117.776,90.94734352971226L117.84400000000001,90.51079211231385L117.912,90.46516543817017L118.048,86.88979510225359L118.25200000000001,88.92430290594126L118.456,88.37579378473696L118.592,88.10377534552649L118.796,87.14516811801644L119.204,86.97987559134607L119.33999999999999,82.9921554786277L119.476,83.41230284927538L119.544,83.6081757106502L119.74799999999999,83.03161506540214L119.816,82.67071956576802L119.88399999999999,83.42856247463588L120.088,82.86197624834642L120.632,83.30119752286207L120.972,83.11065819252039L121.10799999999999,81.95889970802781L121.51599999999999,81.9319813122226L121.788,82.54392219472223L121.85600000000001,82.11094515263899L121.92399999999999,82.40499746398861L121.992,82.98981953364807L122.4,83.03429228031358L122.604,83.61869335034389L123.08,84.3335396368115L123.21600000000001,85.04847985143118L123.42,86.47365064856535L123.488,87.28244472050666L123.692,88.26777364898179L123.76,88.92626109690914L124.1,90.40304159790081L124.168,90.75365304890542L124.23599999999999,91.52970879058543L124.44,91.75434718415104L124.64399999999999,92.96085821683685L124.712,92.93252582422839L124.78,93.09050373200813L124.848,92.02379746814664L124.916,92.51563379458297L125.324,92.70660286356329L125.732,92.47176192779386L126.14,91.90815381140453L126.412,91.41511296846446L126.548,93.35068708767216L126.888,92.40853030293259L127.16000000000001,92.1985421373965L127.636,92.37540877651348L127.772,92.22005148730167L127.976,91.39264779948482L128.112,91.4669154262678L128.18,91.8018497994452L128.384,91.1239194633708L128.452,92.11954653243103L128.588,92.53590457555997L128.656,92.36703977936588L128.86,92.13365989224397L130.016,91.62129405643546L130.084,91.15882399990338L130.152,90.74961310005793L130.22,90.52760157121642L130.492,90.11497573267316L130.696,89.92321640766197L130.968,90.12709969150755L131.036,89.11624779200204L131.10399999999998,87.93029678714932L131.376,87.39803098967309L131.44400000000002,87.37085670318815L131.512,87.07575760174909L131.648,86.6072983802106L131.784,86.16000797919766L131.92,85.893469530339L132.05599999999998,85.63029658916372L132.6,84.49455989919696L132.94,84.5676963365847L133.008,83.58754075276408L133.62,83.37741348664127L133.688,82.51532339491914L134.436,82.27813908678485L134.776,82.56696974675016L134.98000000000002,82.35450186461034L135.048,81.44799464697229L135.252,82.01774196994131L135.388,82.17150612712808L135.456,82.28346948586459L136,81.52394598009256L136.06799999999998,80.75592054531077L136.136,80.34703489051866L136.204,80.97864722999027L136.408,81.1408136129472L136.544,81.42856402747529L136.612,81.84361866911539L136.67999999999998,81.87882167756067L137.224,81.35632295255745L137.56400000000002,81.32422998552371L137.632,81.1790449346687L137.836,80.80211662460378L138.31199999999998,80.25803554689212L138.448,80.44237155865372L139.128,80.82667620419355L139.46800000000002,80.69921925442519L139.536,80.75288989803788L139.672,80.18684013560221L139.74,80.48357050898063L140.148,80.9114316052941L140.21599999999998,80.80637101972071L140.624,81.06184334377892L140.692,81.73863654826792L141.304,81.88178390470543L141.576,82.16785375485222L141.71200000000002,82.12804794393656L141.984,82.14912730281019L142.596,81.94744096433838L142.73200000000003,82.38009772162981L142.93599999999998,82.43009088333386L143.072,82.69123982358742L143.14,82.8410478187066L143.48,82.8667490865962L143.684,82.98354307155451L144.024,82.96720541030376L144.16,82.77499084903637L144.43200000000002,81.93815796035112L144.56799999999998,81.57181754651741L144.636,81.88642782128221L144.704,81.25885929128589L144.84,80.62690173359073L144.976,80.80222752501801L145.316,81.00282793804374L145.52,80.75193360329362L145.656,80.59247743654406L145.86,80.13844021068668L146.06400000000002,79.72847087113358L146.336,79.87349970858003L146.54,79.89795597928014L146.81199999999998,80.50479284348141L146.88,80.420460078825L146.948,80.11308565374114L147.424,79.57948565814803L147.56,79.37193459816598L147.696,76.02674345174482L147.89999999999998,76.25802781013257L147.96800000000002,76.34477418432762L148.376,72.98200281780431L148.444,72.7471216538627L148.71599999999998,74.49768688623406L148.988,74.67714045683077L149.192,74.99407239417758L149.26,76.33647012279376L149.328,76.16656517252429L149.39600000000002,76.2378328655957L149.53199999999998,76.12772910397533L149.736,76.24123284730214L150.21200000000002,75.87312143210522L150.28,75.72075102038299L150.62,75.56137478798982L150.756,75.93478380181907L150.824,77.69218827081141L150.892,80.45669374456953L151.50400000000002,80.69265164025632L151.776,78.34981021310843L151.844,74.4564833299873L151.912,74.19445688440565L151.98,75.06908973670836L152.116,75.21789160343003L152.456,75.96130740594447L152.524,76.93913378267429L152.66,79.05057394124228L152.728,80.20824204825409L152.796,80.88447947095574L153,80.2484329572031L153.136,79.86027410619077L153.204,79.72939202727133L153.272,80.1380717824389L153.884,80.02777800253428L154.088,79.80020510026527L154.7,79.61739657904175L155.108,79.26566524872666L155.176,79.25550464561032L155.58399999999997,74.824635937895L155.65200000000002,75.32744751949676L155.72,72.23470765390141L155.856,73.1587910735823L156.264,73.49248581602292L156.672,73.61738992719009L156.74,74.94200110154105L157.28400000000002,74.95015096433495L157.352,71.28313571925607L157.556,68.85014197471459L157.76,69.9585299547813L158.03199999999998,69.94803296223614L158.168,66.50085829144052L158.44,67.75267922734956L158.84799999999998,68.20449427585984L159.12,68.92104932188974L159.18800000000002,69.86261862975708L159.392,68.10938150274137L159.52800000000002,70.50150290717164L159.73200000000003,67.83517837444955L160.00400000000002,69.23109491202764L160.14,70.7336148039416L160.276,72.28814849850521L160.344,73.46415901219476L160.412,74.50585487978086L160.888,74.57489425336928L161.024,74.33211587190118L161.092,75.23073999675998L161.5,76.19628697604404L161.56799999999998,75.9905553072021L161.636,75.87988341352327L161.772,76.38666682368363L161.908,77.29596242627592L162.724,78.03185604269984L163.336,78.1183506719312L163.608,79.08690412323291L163.948,79.72032113185054L164.016,80.19854110298925L164.356,81.26628616466886L164.424,82.28259557084094L164.492,80.97946556886062L164.764,81.38433398839814L164.832,80.92073107632147L165.24,80.19185598931217L165.512,80.99498362948917L165.58,81.74589365758794L165.648,82.74554075771249L165.78400000000002,83.15326800766834L165.852,82.4566568449609L166.192,82.08452971823208L166.39600000000002,81.67519667896758L166.53199999999998,81.94554365042175L166.736,80.90030888902959L166.94,81.12102922840083L167.144,80.6471479848475L167.28,76.22069899441276L167.68800000000002,76.17734873904737L167.756,76.7257124514125L167.892,76.42535987643879L168.02800000000002,78.21119359494702L168.64,77.48029497604269L168.708,76.27035686987897L168.776,76.04744345814686L168.844,76.57723696461929L169.796,77.08232009806845L170.06799999999998,77.61463446191873L170.34,76.98624850569924L170.408,77.08777873579025L170.612,76.79974221173435L170.67999999999998,76.98032663401588L170.884,73.34211867641646L171.02,71.09546149386355L171.156,72.25801457199756L171.49599999999998,72.23660598172312L171.7,72.9515177020894L171.836,74.14132376831174L171.904,71.81003284068589L172.04,69.44344119011184L172.244,71.73942843714173L172.448,73.64318749496373L172.58399999999997,71.60401744690974L172.78799999999998,73.30254238420444L172.992,73.29515364949393L173.06,73.44029911755068L173.264,74.73602245204788L173.46800000000002,76.26927543009336L174.012,76.049005081941L174.08,77.2724668770451L174.21599999999998,72.93350171393512L174.556,69.49626662674211L174.89600000000002,72.06683071622479L174.964,69.29831345634778L175.03199999999998,69.98164344073129L175.168,70.38625635005484L175.236,66.46747667615449L175.372,64.19695614015404L175.508,61.26764213616093L175.71200000000002,63.8837717306148L175.78,64.92662201862227L176.052,61.614817461896095L176.392,58.755510807663185L176.52800000000002,60.17130307268435L176.93599999999998,57.62559044188774L177.00400000000002,54.885658267950305L177.072,53.41355495892749L177.14,51.90476444164156L177.208,51.014344931475534L177.412,49.608354274069484L177.548,47.24867215855832L177.75199999999998,45.317075386932885L177.82000000000002,46.82141352814989L178.024,49.185235937486794L178.16,47.288182472912666L178.296,49.33258398932915L178.364,47.9848284688473L178.43200000000002,46.68850744740436L178.704,45.481706698351616L178.976,43.9449194366201L179.044,46.57437051093703L179.112,48.38793348906836L179.384,46.00868564452023L179.452,47.40851924140833L179.588,46.251148023796645L179.656,45.79109160155707L179.792,48.82459054938465L179.86,48.59839333677172L179.928,51.73116452324615L180.06400000000002,50.535103521448164L180.132,53.677092754542755L180.26799999999997,57.203517021637225L180.47199999999998,55.6092363173841L180.608,57.248789849183694L180.676,55.96102787811368L181.08399999999997,53.81750543297477L181.15200000000002,53.35793917503268L181.22,50.793460564745686L181.492,49.09489850729233L181.628,47.414818160086384L181.764,46.1433383664143L182.036,44.858089877069716L182.512,43.67597362107492L182.71599999999998,45.84912780098077L182.852,44.22740116821751L182.988,43.309291056831654L183.056,45.93817846055262L183.328,44.56717768890263L183.464,43.47949284669966L183.53199999999998,42.32070512667855L183.60000000000002,45.29104846474067L183.804,43.772848092929706L183.872,46.26335296445714L184.076,43.89825384381854L184.144,42.09261183764502L184.34799999999998,42.358104047716665L184.552,43.40484100959162L184.824,45.60564701815528L185.23200000000003,44.058083830876086L185.3,42.328379022264585L185.50400000000002,45.785624378391674L185.572,49.2745594347692L185.708,47.75030674225698L185.844,47.58227531349257L185.912,50.492479715454095L186.048,48.65805506211561L186.116,48.209502737582284L186.25199999999998,46.3920708210139L186.32000000000002,45.59211680735115L186.388,45.017634271431774L186.456,47.001960038359584L186.592,46.201374624251514L186.728,45.385256004906864L186.796,44.10341619838002L187.06799999999998,44.585627517011915L187.136,43.42795036977458L187.272,46.36891726068484L187.476,46.39624464305032L187.612,45.1183937000101L187.816,44.46602235736739L188.632,43.39433551810032L188.904,42.05121999176896L189.108,41.088227750804805L189.448,44.78902967617384L189.58399999999997,44.09220700256731L189.78799999999998,42.98425812671678L190.196,43.323884755012784L190.264,44.89146389249959L190.39999999999998,46.632412830787445L190.60399999999998,44.95041741712842L190.808,43.61840337349193L190.876,42.66406531986797L190.944,45.060939780942306L191.556,47.0846905509284L191.624,49.69376146225645L191.692,47.67847398046891L191.76,46.43471935990155L191.89600000000002,45.32870549110254L192.03199999999998,44.010833806406254L192.236,42.895483837362235L192.576,41.577790769582776L192.71200000000002,40.44826551436569L192.78,38.75209521973824L192.84799999999998,39.20447176701023L192.91600000000003,37.83650167241268L193.46,37.147320173666L194.072,36.24084210532172L194.412,36.16013695722961L194.956,35.41671323490985L195.024,34.44355158080205L195.228,34.92680157548659L195.5,34.864594577925885L195.704,35.1877468574215L195.976,34.62628783914323L196.17999999999998,34.19839451233179L196.384,33.81941124628605L196.452,33.67855939798335L196.52,33.0838178787389L196.656,32.75253726154247L197.2,32.552570420725715L197.336,32.100614517061956L197.47199999999998,32.07923007199051L197.608,31.29141074914756L197.948,31.06287051838359L198.28799999999998,30.907288192856925L198.832,31.0276976527023L198.89999999999998,31.90381054908343L198.96800000000002,32.4742693097688L199.24,33.38063907551151L199.444,34.009302934479535L199.648,33.5449742832613L200.192,33.14160840458618L200.328,32.57697113040652L200.60000000000002,32.50675414279377L200.668,33.186457816199635L200.736,35.93532654522127L200.804,35.6907867777976L200.94,34.97706730721882L201.076,33.99499801512414L201.28,33.582573299495294L201.484,35.73872719698349L201.552,34.60189413741162L201.68800000000002,37.792044792405164L201.824,37.38417355295326L202.3,40.946521650654915L202.572,40.534088044779025L202.708,39.19678122162361L202.844,41.88983696861203L202.98,44.573260776457005L203.048,46.81342593853714L203.184,48.99398882081641L203.388,50.03069013169528L203.524,51.87413553142008L203.728,50.03146426553327L203.864,48.052919478994795L204.06799999999998,49.8983820488952L204.136,48.245287356779926L204.204,46.23897665412295L204.884,45.25201245041242L204.952,43.284389928989555L205.088,41.69072717799335L205.156,40.20421747701536L205.224,39.52060382646499L205.292,42.11057245489715L205.49599999999998,44.980986332041255L205.56400000000002,47.096315609144085L205.7,45.152112557376654L205.904,47.6387507723901L206.04,47.06209968199448L206.176,47.64265932500757L206.31199999999998,47.53033666443292L206.924,46.16711112587606L206.992,44.212318894211364L207.196,43.76463536157078L207.332,42.25831138654135L207.46800000000002,45.22540246096344L207.60399999999998,45.761995542777726L207.74,43.69582545105396L207.808,42.69955450016312L208.012,45.296849398973876L208.42,43.95404348284987L208.488,42.616141536300574L208.76,43.31743911641587L208.964,42.53321702070346L209.168,44.77677529006422L209.304,43.30307150560711L209.372,42.14111975070125L209.644,41.28489988432949L209.91600000000003,44.00760736431192L210.12,42.64263181721671L210.18800000000002,41.52853313465107L210.256,40.17134477362029L210.324,38.922098392123075L210.52800000000002,38.1923092438943L210.8,37.39929913788791L210.93599999999998,37.165085105717026L211.208,36.62621841448549L211.276,35.487789445202225L211.412,37.94577674370163L211.48,36.78294005182704L211.82000000000002,36.36090214200405L212.024,35.748862192280995L212.092,38.431003164902165L212.228,41.07487173406085L212.364,39.08665681903648L212.5,41.7976410203963L212.56799999999998,41.02055454922126L212.772,40.237398921505815L212.84,42.72281141703036L212.976,41.28762084129875L213.17999999999998,39.96098261504321L213.24800000000002,39.13693943313683L213.384,38.39164017108399L213.792,37.75767563204553L213.99599999999998,37.25221567098657L214.2,36.69654046097503L214.26799999999997,36.1896518750423L214.54,35.79774680808819L214.948,34.86933340965061L215.832,33.90167539480194L216.10399999999998,36.844864532946275L216.24,36.07450176859501L216.58,35.823798947543395L216.78400000000002,35.57373347919133L216.92,34.551140359368986L217.192,37.4972039654493L217.53199999999998,36.72157819327137L217.804,39.65653141808045L218.076,39.11203461961483L218.28,38.36605274358766L218.892,37.869887361493795L219.3,36.49013211631632L219.98,35.3999249213644L220.048,34.64252653251904L220.116,33.82728661849242L220.32000000000002,33.08889444194534L220.388,33.310678271932915L220.728,33.041672699276944L220.864,33.21718085687576L221.136,32.94360572968563L221.204,32.86661766674075L221.272,35.819279346000855L221.34,34.89945258042499L221.408,34.921653063073165L221.476,34.63321050407555L221.544,33.7910759238265L222.088,36.81360066517087L222.292,36.92364945623831L222.7,36.24829903125226L222.97199999999998,35.458853609647576L223.65200000000002,35.09465980527884L223.72,38.81769218467872L223.78799999999998,37.81367939298829L224.264,36.63099077255663L224.60399999999998,36.09144365627105L224.808,38.415076589497886L224.944,37.99855149536768L225.012,37.179818337182354L225.08,36.49822658000778L225.148,35.57090824094317L225.42,35.21834232631983L225.964,34.78783997099583L226.03199999999998,33.83080650255903L226.236,33.603048805856645L226.372,32.51286095048266L226.44,31.70844016259022L226.576,31.41560246889307L226.91600000000003,31.702962560514294L227.392,31.296468097263045L227.52800000000002,30.77283440843553L227.73200000000003,30.1318447841208L227.868,29.648841330117733L228.208,29.258694742925087L228.412,28.657779084470803L228.616,28.766613151297122L229.228,28.85380192085654L229.296,29.224684946712472L229.5,28.50991512362151L229.704,28.779934176952906L229.84,28.656818382521095L229.908,28.124511041657L230.316,31.883041647725264L230.52,31.10829561605641L230.588,34.126909996000194L230.724,33.66867721503513L230.928,32.96611274989948L231.06400000000002,32.76898007290717L231.2,32.37553229820773L231.404,32.32443149375945L231.47199999999998,32.13435441593387L231.54,32.33833039354596L232.016,35.04198887843387L232.356,34.869905773665494L232.492,36.01649941765629L232.56,36.32409485874703L232.628,39.73166668259762L232.89999999999998,39.56838678781358L232.96800000000002,38.70672321605733L233.308,40.163714327237585L233.376,41.26444335869911L233.648,40.45114232420795L233.852,39.14106701823718L233.92,37.894735088050965L234.056,37.39152982961022L234.53199999999998,36.35011431795283L234.60000000000002,35.77911380484173L234.94,36.508316535441026L235.756,35.96742681422219L236.096,34.637133892782884L236.23200000000003,33.759320477399115L236.3,33.62336580376396L236.50400000000002,33.031020109694225L236.572,32.32210670383145L237.184,31.843046373931486L237.592,32.52080240084615L237.864,32.287458705510915L237.93200000000002,35.10296573375993" style="fill: none;" fill="none"></path></g></g></g></g><g opacity="0.2"><g><g><g><path stroke="rgb(204, 51, 17)" stroke-width="2px" d="M34.34,95.93260965983073L34.408,133.69530314127604L34.748,125.0132009209527L34.952,132.09039272732204L35.02,140.84683363172743L35.224000000000004,131.26516784667967L35.36,90.57001803927952L35.632000000000005,146.08352661132812L36.448,136.27956000434028L36.72,104.5084352959527L36.856,155.20357008192275L36.992000000000004,124.45517944335938L37.06,335.7212109375L37.196000000000005,120.85188537597656L37.604000000000006,101.25441504584418L37.672000000000004,174.22616726345487L37.74,122.84025580512153L37.80800000000001,130.16864434136284L37.876000000000005,93.69380148993598L38.419999999999995,112.09270426432292L38.623999999999995,135.8735868326823L38.827999999999996,142.57588629828558L38.895999999999994,142.60718743218317L38.964,142.92806328667535L39.032,162.27847737630208L39.372,127.76387407090928L39.916,141.65533962673612L39.983999999999995,165.97451599121095L40.391999999999996,129.36151750352647L40.936,109.5522545030382L41.14,107.52817084418403L41.208,122.21701256646051L41.684,122.86927242702907L41.888,163.38552110460068L42.024,93.03960567898221L42.568,131.01110114203559L42.772,100.20847069634331L42.84,239.77134521484373L43.452,89.07910914950901L43.588,155.75729112413194L43.656,120.91166897243923L43.724000000000004,153.38207465277776L44.2,113.32405019124349L44.54,109.85654727511937L44.676,132.84257961697048L44.744,104.73064860026041L45.016000000000005,177.3645797390408L45.356,113.19468404134115L45.424,124.1783883327908L45.628,140.81359503851996L46.036,166.7195022922092L46.104000000000006,130.54305684407552L46.24,210.67530558268228L46.444,84.94136678059897L46.580000000000005,316.4673318142361L46.648,98.91998480902778L46.784,113.49907640245226L46.919999999999995,168.3186908637153L46.988,121.625408460829L47.464,112.65570217556424L48.007999999999996,102.59331108940972L48.076,170.2102426486545L48.144,127.7150030178494L48.416,104.60266462537977L49.096,121.73173936631943L49.164,144.86192532009548L49.3,105.9781460571289L49.571999999999996,119.07141459147135L49.775999999999996,90.1574350229899L49.844,139.4520681423611L49.912,97.47093273586697L50.116,97.54546154446072L50.932,139.91305067274305L51.34,188.3518631998698L51.544,72.09576409233941L51.68,33.42228668212891L51.748,129.44117062038845L51.884,95.81668802897136L52.156,112.10983357747396L52.428000000000004,160.62426133897569L52.564,130.4160898844401L52.904,95.97350151909723L53.856,171.47458875868057L54.196000000000005,115.65146996392144L54.264,91.6128562672933L54.536,111.89465789794922L54.604000000000006,73.53515452067057L54.876000000000005,83.39389811197915L54.944,105.3653264702691L55.080000000000005,102.16051225450303L55.284,101.12551364474827L55.623999999999995,88.39701633877223L55.69199999999999,78.93109635949135L55.76,109.09527062310113L56.099999999999994,73.59201344384087L56.168,73.49803949991862L56.236,113.97278218587239L56.44,82.53957475026449L57.052,85.60845635308159L57.187999999999995,81.10405433654785L57.596,75.92441908094618L58.004,93.20843020968968L58.071999999999996,78.19043514357674L58.48,101.98040851169162L58.684,99.50101738823786L58.956,82.1757126490275L59.228,85.120240749783L59.364,82.89967132992216L59.636,88.26572178310819L59.704,86.10662633260091L59.772,89.52033985561795L59.908,130.32002570258248L60.248,109.13129770914713L60.588,85.8783041466607L60.656,90.55643998040094L60.724000000000004,103.48117596096463L61.744,93.27562413533529L62.22,78.37200674004026L62.628,92.22158289591471L62.696000000000005,80.51919003168742L62.832,100.16195356580945L62.968,116.15737318250868L63.24,135.45077406141493L63.852,132.21325541178385L63.988,168.19683614095052L64.056,109.41503590901692L64.25999999999999,88.13243092007106L64.66799999999999,94.53121244642469L65.212,87.85126996358237L65.28,85.58149337768555L65.484,94.7688801574707L65.55199999999999,92.96640472412109L66.164,101.75857696533204L66.232,75.0566806242201L66.98,85.21895648956298L67.184,44.034593302408865L67.252,81.27032048543295L67.388,93.55940156724718L67.524,52.35599914550781L68.476,94.60921630859376L68.816,84.09474874284533L68.952,83.35040184868707L69.15599999999999,73.42176788330079L69.29199999999999,80.97038926018608L69.632,70.10390427483452L69.69999999999999,91.83287785847982L70.10799999999999,40.74866834852429L70.244,29.28022803412543L70.312,67.54974668714736L70.44800000000001,94.11961551242405L70.51599999999999,40.44854926215277L70.72,201.08029486762152L70.85600000000001,67.2096418507894L71.196,99.92714526706271L71.26400000000001,118.61788614908853L71.87599999999999,109.20456807454427L72.012,83.39663115183512L72.28399999999999,81.52882927576701L72.352,78.4293301290936L72.42,86.10013342963325L72.692,76.48458342022367L72.964,88.89963915506998L73.03200000000001,84.29260309855142L73.23599999999999,78.28534858173795L73.372,90.71167815314399L73.44,90.42988118489583L73.508,106.74232889811198L73.57600000000001,54.813050638834625L73.64399999999999,54.42329086303711L73.712,75.4492254977756L73.848,58.71041753133139L73.916,87.81153469509547L74.256,92.35143491956923L74.324,78.35455513000488L74.596,38.732600097656245L74.80000000000001,94.92945087009006L74.936,102.87451429578994L75.34400000000001,47.69125200059679L75.48,118.91541592068143L75.82,203.18337375217016L76.092,88.47817008124457L76.16000000000001,102.75993409898545L76.296,119.4060971069336L77.112,109.74763610839844L77.588,52.86125956217447L77.65599999999999,114.83156555175782L77.79199999999999,122.52727162679037L77.86,105.17187930636935L77.928,109.95459720187716L77.996,126.04877292209201L78.132,96.77653313530816L78.336,100.44449518839518L78.60799999999999,57.5321721733941L78.676,91.17288928561742L78.94800000000001,92.08543111165365L79.152,93.00323757595487L79.42399999999999,121.09994957817925L79.628,82.08056325276694L79.696,68.40528284708658L79.76400000000001,70.09793345981173L79.832,81.9929299990336L79.9,36.35069305419921L80.036,86.83157939487035L80.104,90.67412856207953L80.172,43.915596483018675L80.37599999999999,75.3787888929579L80.444,50.75179189046224L80.512,48.578188883463554L80.648,39.749838663736995L80.78399999999999,67.59149033440484L80.852,67.16596828884549L81.328,91.47421702067057L81.53200000000001,86.6691828833686L81.804,100.05365351359049L82.008,79.2996773162153L82.14399999999999,107.0051594373915L82.28,96.3791608344184L82.55199999999999,98.56739890204535L82.824,100.59301411946615L83.028,78.31790787590874L83.096,90.72304111056859L83.164,90.28589883592393L83.232,84.1024751917521L83.64,69.72507590399849L84.048,88.26444372389052L84.184,62.27378846910264L84.25200000000001,68.26444585164388L84.524,76.08792578379312L84.728,76.1008165274726L84.796,30.46262746175131L85,26.07975952148439L85.068,75.19025931464301L85.136,32.54422831217448L85.272,87.78341512891981L85.408,83.97124250200059L85.816,84.15991203308106L86.02,71.17198907640245L86.088,91.26074868943957L86.29199999999999,68.9062956407335L86.36,78.87881691667769L86.428,46.14512023925781L86.564,81.51473459879557L86.632,47.13467909071181L87.04,32.9104896036784L87.312,90.3863766225179L87.38,76.82652103424073L87.51599999999999,102.7311573961046L87.652,90.59434416876898L87.788,38.893738165961366L87.85600000000001,82.7424010128445L87.92399999999999,83.11334864722357L87.992,75.91592308044433L88.06,77.14955766889784L88.26400000000001,133.24606608072918L88.4,105.06853305392795L88.536,94.46499026828342L88.74,31.14415442572698L88.87599999999999,110.97759080674913L88.944,86.29186494615342L89.012,84.70871624416776L89.42,105.22449852837457L89.488,94.05420362684461L89.62400000000001,86.13357044643827L89.828,88.40489292568631L90.1,80.59288166999816L90.304,50.4656997680664L90.508,32.79018907335069L90.57600000000001,80.6302833864424L90.712,30.872457444932735L90.848,54.97608089870877L90.98400000000001,77.7520094341702L91.324,82.53111722734239L91.528,69.17132241990831L91.664,80.77191473642985L92.684,73.29079850090875L92.956,98.39094977484808L93.092,117.38626861572266L93.16000000000001,107.86436832004124L93.432,93.8007812330458L93.568,100.12067391289605L93.636,99.89133999294705L93.83999999999999,98.32660922580295L93.976,101.54317343817817L94.112,80.67195847193399L94.316,88.53650284661187L94.452,83.62826354132758L94.52,84.40087787628174L94.65599999999999,75.57861729939779L94.928,118.76760769314237L95.19999999999999,102.83512834337023L95.676,73.06180672963461L95.744,73.3471391084459L95.812,78.95412165443102L95.88,83.86082995520698L96.01599999999999,85.81085823059082L96.22,87.867663675944L96.288,80.70555053075155L96.35600000000001,73.63053515964083L96.56,83.6590769153171L96.628,35.23698591444227L96.696,82.94852201249864L96.76400000000001,72.48888801574707L97.308,78.40345909648471L97.37599999999999,85.06142022450766L97.58,86.2860457780626L98.056,83.8333746931288L98.26,83.9474180899726L98.804,93.88514068603516L98.872,99.16570112440321L99.008,41.558885464138456L99.07600000000001,83.34476412879096L99.14399999999999,90.47015740288629L99.348,80.95141981336806L99.416,84.81074671427409L99.55199999999999,87.8736533525255L99.688,91.10412306043837L100.028,43.389518941243495L100.096,37.369606526692706L100.368,82.81817807939318L100.436,85.2219169998169L100.504,78.4434966214498L100.572,77.91941689597236L100.776,52.3249967787001L100.84400000000001,39.40944939507378L100.912,92.62608939276801L101.11600000000001,88.79070158216689L101.184,94.99664328681098L101.728,120.889877081977L102,88.75018846299913L102.136,89.22487052069769L102.272,82.02563348982069L102.33999999999999,93.01768854777018L102.544,45.129318169487846L102.74799999999999,38.07226145426432L102.816,91.6587388949924L102.88399999999999,58.87800021701388L102.952,89.63643953959146L103.15599999999999,90.3031601799859L103.69999999999999,40.31834716796877L103.836,86.07008394877116L103.972,82.62714293162027L104.10799999999999,98.01139334784614L104.176,93.98443245781793L104.38,75.92692540486654L104.51599999999999,74.59404054005941L104.652,79.34318799681132L104.992,81.39937504238551L105.46799999999999,127.69274637858072L105.536,98.41512123955621L105.74,107.62586164686415L105.87599999999999,70.84765325758192L106.28399999999999,105.27713585747613L106.352,96.9139991929796L106.488,99.24554436577691L106.62400000000001,110.54230224609374L106.896,100.4029243130154L107.168,102.20787287394205L107.304,97.95860361735026L107.64399999999999,106.70163923475478L107.712,107.68962880452474L107.78,102.84108256022135L108.256,100.40336341010199L108.324,104.03179918077257L108.732,98.38795606825087L109.004,107.57536397298178L109.072,102.96153700086805L109.14,97.95400139702691L109.75200000000001,107.09547461615668L109.888,98.52047888861762L110.092,96.40256576538086L110.5,113.91674072265626L110.568,105.31496459960938L110.83999999999999,95.9660444132487L111.044,86.60864633348253L111.112,93.33036943223742L111.18,79.79029848734537L111.38399999999999,90.63559590657552L112.132,89.19307068718804L112.336,92.5876193576389L112.54,105.54741746690539L112.60799999999999,114.14463663736979L112.676,110.8496430460612L112.88,112.84762532552084L112.94800000000001,94.19677135891385L113.01599999999999,89.43210472954644L114.036,82.41888114505343L114.24,92.87977283053928L114.37599999999999,94.52680336846245L114.444,94.79133748372396L114.58,83.04872706095377L114.648,92.36148586697048L114.852,47.407957424587664L115.056,42.365948927137595L115.12400000000001,86.24011637369792L115.26,90.48983378092449L115.396,97.95859305487738L115.53200000000001,85.15982625749376L115.668,87.37538453843858L115.872,78.14778925365873L116.008,77.8266494316525L116.14399999999999,72.75164688110351L116.28,82.21874567243788L116.416,94.23347896999782L116.55199999999999,112.44908813476562L117.232,111.48788197835286L117.504,102.56454645792643L117.776,90.80340040418837L117.84400000000001,85.55781985812716L117.912,89.947499838935L118.048,46.32479092068144L118.25200000000001,112.00717539469402L118.456,82.15258536020914L118.592,85.01754144880508L118.796,76.26911821577285L119.204,85.10451964060465L119.33999999999999,37.74876308865018L119.476,88.17916005452474L119.544,85.83048632303873L119.74799999999999,76.49014305326673L119.816,78.57611506991915L119.88399999999999,92.02680486043295L120.088,76.43367079204984L120.632,88.28446111891004L120.972,80.94886011123657L121.10799999999999,68.89141764322916L121.51599999999999,81.62657383388944L121.788,89.48680702209472L121.85600000000001,77.1985266134474L121.92399999999999,85.74122060139975L121.992,89.62502301534018L122.4,83.53886578877767L122.604,90.24912030537924L123.08,92.44395614624023L123.21600000000001,93.15996203952365L123.42,102.6431810506185L123.488,96.45876264784071L123.692,99.44699939303928L123.76,96.39724831475152L124.1,107.15811913384331L124.168,94.73157803005643L124.23599999999999,100.33458813137477L124.44,94.3030222913954L124.64399999999999,106.64954511854384L124.712,92.61107559204102L124.78,94.88287036471897L124.848,79.92129059791564L124.916,98.09585088094076L125.324,94.87327662150065L125.732,89.80733205159505L126.14,85.51363703409832L126.412,85.82122982449L126.548,115.31108974880642L126.888,81.7191218439738L127.16000000000001,89.8160838148329L127.636,94.38208089192709L127.772,90.45741755167643L127.976,82.0051911438836L128.112,92.3095320807563L128.18,95.60190768771702L128.384,83.43233947753906L128.452,103.41561167399088L128.588,97.25976928710938L128.656,90.45115400526258L128.86,89.48580660502115L130.016,85.80815574645996L130.084,85.91178718566894L130.152,86.10683758205839L130.22,88.00873002794053L130.492,85.43345541636148L130.696,87.74757665846083L130.968,92.4402939860026L131.036,77.64744661119249L131.10399999999998,74.47487736172147L131.376,81.35911410225762L131.44400000000002,87.06254597134061L131.512,83.7276579199897L131.648,81.29231042226156L131.784,81.08519466400146L131.92,82.86940984514024L132.05599999999998,82.6444208738539L132.6,71.60885597229004L132.94,85.3974788792928L133.008,72.46701011657714L133.62,80.99337697347006L133.688,72.73432593451606L134.436,79.58712205992805L134.776,85.84394970364042L134.98000000000002,79.94390947341918L135.048,71.16305473327637L135.252,88.4819122144911L135.388,83.916064898173L135.456,83.55376981523301L136,72.90663608127171L136.06799999999998,72.04215048895942L136.136,75.70794949849447L136.204,88.14471809387207L136.408,82.98070134056938L136.544,84.69328786638047L136.612,86.55269540574815L136.67999999999998,82.27822371164957L137.224,75.42822013431125L137.56400000000002,80.96011348300509L137.632,79.5318219502767L137.836,76.52560900794136L138.31199999999998,74.08506628248426L138.448,82.53378877851698L139.128,85.18687335544163L139.46800000000002,79.25313361446062L139.536,81.36181979285347L139.672,73.76462122599285L139.74,83.85017807854547L140.148,85.76580626593696L140.21599999999998,79.6143873389562L140.624,83.96035032908121L140.692,89.41731500413682L141.304,83.50588786231147L141.576,85.41351044972738L141.71200000000002,81.67642399046156L141.984,82.38828694237603L142.596,79.6591725068622L142.73200000000003,87.28888241238063L142.93599999999998,82.99729724884033L143.072,85.65415187411837L143.14,84.540721244812L143.48,83.15834742228189L143.684,84.30865013546415L144.024,82.78184354994032L144.16,80.59418613539802L144.43200000000002,72.44372061835395L144.56799999999998,77.4154368019104L144.636,85.45589501274956L144.704,74.13866819169786L144.84,73.4569141345554L144.976,82.79141767713759L145.316,83.27877583397759L145.52,77.90536701520284L145.656,78.78333895206451L145.86,74.98707958645292L146.06400000000002,75.07709033966064L146.336,81.5189503457811L146.54,80.17542897648282L146.81199999999998,87.38976911756728L146.88,79.46364760080972L146.948,76.62571409013536L147.424,73.52543138715956L147.56,77.01712689293755L147.696,38.073278469509546L147.89999999999998,78.8821059009764L147.96800000000002,77.32897070142958L148.376,34.82907830132379L148.444,70.08223536173502L148.71599999999998,94.35903810289172L148.988,76.71316306644015L149.192,78.58988042407564L149.26,91.56688385857477L149.328,74.23887814415825L149.39600000000002,77.04641323513454L149.53199999999998,74.87852716657851L149.736,77.52900988578796L150.21200000000002,71.69664747450088L150.28,73.99200523800319L150.62,73.75314321306017L150.756,80.1713626130422L150.824,97.63113527086045L150.892,111.82188547770183L151.50400000000002,83.36975418514676L151.776,51.76868340386285L151.844,30.28404622395834L151.912,71.22158894009061L151.98,84.99239333258735L152.116,76.90614981969198L152.456,84.39586447397868L152.524,88.03323798285591L152.66,103.00629623413086L152.728,93.34277279324002L152.796,88.55685220506456L153,73.03205337524415L153.136,75.45634837680392L153.204,78.24444597138299L153.272,84.7748211034139L153.884,78.7764201786783L154.088,77.21823599921332L154.7,77.54330977651809L155.108,75.27503447638618L155.176,79.14022570408054L155.58399999999997,24.553421834309887L155.65200000000002,81.03218632804023L155.72,37.14547387017146L155.856,83.6431449339125L156.264,77.27847925186157L156.672,75.034511879815L156.74,89.97061430189345L157.28400000000002,75.04261669158936L157.352,29.678357815212678L157.556,41.24617591010198L157.76,82.53394419776069L158.03199999999998,69.82893745422363L158.168,27.390320977105034L158.44,81.95543774710761L158.84799999999998,73.33064278920492L159.12,77.05085286882188L159.18800000000002,80.54536176469591L159.392,48.21771582709417L159.52800000000002,97.6417445203993L159.73200000000003,37.583916083441835L160.00400000000002,85.06871587541367L160.14,87.78072320726183L160.276,89.92538881089952L160.344,86.80679681566026L160.412,86.32460182189942L160.888,75.35819282531739L161.024,71.57763028462729L161.092,85.42624087015787L161.5,87.15107307434081L161.56799999999998,73.65638982984756L161.636,74.62423563215468L161.772,82.13646872414483L161.908,87.61253846062554L162.724,86.38106880187988L163.336,79.09969097148213L163.608,90.07580068800185L163.948,86.90686719258625L164.016,85.62427139282227L164.356,93.38057890150282L164.424,93.81331587049696L164.492,66.19457085503473L164.764,85.97784111870659L164.832,75.66084124671089L165.24,71.92227321200902L165.512,90.10701204088L165.58,90.26547780354818L165.648,94.08721588134765L165.78400000000002,87.7792105102539L165.852,74.55313019646539L166.192,77.86249478658041L166.39600000000002,77.0310354063246L166.53199999999998,85.01281361050077L166.736,69.0414107937283L166.94,83.62525135040283L167.144,75.2706435055203L167.28,25.999629584418386L167.68800000000002,75.68551065656874L167.756,82.94727111392552L167.892,73.01765597025553L168.02800000000002,98.47268973456488L168.64,69.18775385538737L168.708,62.54278749254014L168.776,73.5183394410875L168.844,82.5881040318807L169.796,82.81283120473226L170.06799999999998,83.65410236782499L170.34,69.85678315056694L170.408,78.23970813645256L170.612,73.53177226596408L170.67999999999998,79.02917952385214L170.884,32.06417900933161L171.02,45.60561024983724L171.156,85.44796863132052L171.49599999999998,71.99371098836264L171.7,81.0626766035292L171.836,87.64048148261176L171.904,45.35995429144964L172.04,42.59285196940104L172.244,97.78896275838217L172.448,95.24262668185763L172.58399999999997,48.46824863009982L172.78799999999998,92.57346111721463L172.992,73.21132343716093L173.06,75.08707300821939L173.264,89.43688349405924L173.46800000000002,93.6650715637207L174.012,73.54988841586642L174.08,91.1534716881646L174.21599999999998,23.704995727539057L174.556,30.498500637478287L174.89600000000002,101.23162575615777L174.964,37.887605285644526L175.03199999999998,77.73448610305786L175.168,74.97686454349093L175.236,22.00626037597658L175.372,38.43635894775389L175.508,28.03258572048611L175.71200000000002,93.56553836398655L175.78,76.75846664428711L176.052,24.04014600965712L176.392,26.314735310872408L176.52800000000002,76.23442765977647L176.93599999999998,28.742752075195312L177.00400000000002,23.799267306857644L177.072,36.71154334174261L177.14,34.786511535644536L177.208,40.911930982801636L177.412,33.65643558078341L177.548,20.476476304796023L177.75199999999998,23.401798434787338L177.82000000000002,63.889151204427094L178.024,76.00440623601278L178.16,25.76482279459637L178.296,72.52770736694336L178.364,32.69362694634333L178.43200000000002,31.980865241156692L178.704,31.7897327677409L178.976,26.50902445475262L179.044,76.40727837880453L179.112,68.96403690761991L179.384,19.014503309461816L179.452,63.290581902398L179.588,33.1199856906467L179.656,40.571439107259124L179.792,83.24169589572482L179.86,46.032032368977866L179.928,87.27458082411025L180.06400000000002,36.9649793158637L180.132,89.32509405348036L180.26799999999997,97.21319481743707L180.47199999999998,37.521039191352L180.608,75.85063794453937L180.676,41.35049391004773L181.08399999999997,29.497787814670147L181.15200000000002,48.143847927517356L181.22,21.69770941840278L181.492,29.823558620876724L181.628,28.353165825737847L181.764,31.71753675672744L182.036,30.2760730658637L182.512,30.2640620252821L182.71599999999998,70.50503757052951L182.852,25.827811347113737L182.988,32.89270843505861L183.056,75.76469110276963L183.328,29.01224300808377L183.464,31.13896976047093L183.53199999999998,29.17347161187064L183.60000000000002,78.9916105348534L183.804,26.54783399793837L183.872,74.51982181549073L184.076,17.064598388671868L184.144,21.60637722439236L184.34799999999998,45.37029344346789L184.552,55.28078258938258L184.824,70.5752855597602L185.23200000000003,26.499928656684034L185.3,22.703703477647565L185.50400000000002,85.01042045593262L185.572,88.8588966793484L185.708,30.45662495930989L185.844,45.67584465874566L185.912,83.51072472042509L186.048,27.84526177300347L186.116,43.12037204318577L186.25199999999998,25.772071668836816L186.32000000000002,36.51609534369575L186.388,38.49973982069227L186.456,69.51548324584961L186.592,37.118189493815095L186.728,36.125836113823794L186.796,29.56007320827908L187.06799999999998,50.056642354329426L187.136,30.29331705729166L187.272,79.73618359088897L187.476,46.70629235161675L187.612,30.6203070746528L187.816,37.064426506890186L188.632,31.235320638020823L188.904,26.812662353515606L189.108,30.162426893446167L189.448,86.77714040968154L189.58399999999997,36.186280619303375L189.78799999999998,30.41382581922744L190.196,47.17717946370442L190.264,62.67671361287435L190.39999999999998,66.38466066148546L190.60399999999998,25.867037353515627L190.808,28.505799594455283L190.876,31.83645209418401L190.944,72.25510804918076L191.556,70.04551718817817L191.624,79.29544254263243L191.692,24.81366909450955L191.76,32.32347866482206L191.89600000000002,32.78022715250651L192.03199999999998,29.058684692382798L192.236,30.241081102159285L192.576,26.627668185763895L192.71200000000002,27.633034532335074L192.78,19.507891506618932L192.84799999999998,44.33699086507161L192.91600000000003,22.31595208062066L193.46,29.328088107638877L194.072,25.956232910156245L194.412,35.24448225233289L194.956,26.982066311306426L195.024,23.402371826171873L195.228,40.40960089789496L195.5,34.15881395128039L195.704,38.854128892686646L195.976,28.256154039171008L196.17999999999998,29.34365417480467L196.384,29.519588758680555L196.452,32.08049953884549L196.52,26.336071506076394L196.656,28.993933715820333L197.2,30.283810831705722L197.336,26.972867906358516L197.47199999999998,31.836609022352434L197.608,22.353065592447905L197.948,28.469926418728306L198.28799999999998,29.142101067437068L198.832,32.39382473415799L198.89999999999998,41.84390625L198.96800000000002,38.94651129828557L199.24,43.664019504123274L199.444,41.14192128499349L199.648,28.27685045030381L200.192,28.56514862060547L200.328,26.170777859157994L200.60000000000002,31.710094740125868L200.668,40.89815751817491L200.736,67.12310879177518L200.804,32.91631707085503L200.94,26.879435289171L201.076,22.852755059136285L201.28,28.903334859212237L201.484,60.201757219102646L201.552,21.703751152886298L201.68800000000002,73.98647012498644L201.824,32.75659739176433L202.3,81.36377969741821L202.572,35.85474873860676L202.708,24.024127265082456L202.844,72.44438303629556L202.98,75.01852595435248L203.048,72.22962080213759L203.184,73.73395534939237L203.388,61.792770436604826L203.524,72.78927531348334L203.728,29.12510755750867L203.864,25.604985419379346L204.06799999999998,70.83640799628364L204.136,29.48980560302735L204.204,23.476019422743065L204.884,34.0542333984375L204.952,20.96037638346354L205.088,23.609541151258668L205.156,23.3387555609809L205.224,31.764542778862847L205.292,71.495525165134L205.49599999999998,77.54778081470064L205.56400000000002,71.09616259256998L205.7,23.093808797200523L205.904,75.8513497797648L206.04,40.519601508246524L206.176,54.22950268215604L206.31199999999998,46.25595981174044L206.924,30.70039174397786L206.992,22.033873697916675L207.196,38.68536170111764L207.332,25.168043077256954L207.46800000000002,78.88906539175245L207.60399999999998,51.85000840928819L207.74,20.25372280544704L207.808,31.396184082031255L208.012,74.76492362128364L208.42,28.718998582628046L208.488,27.43673550075954L208.76,51.27413635253906L208.964,33.635684848361535L209.168,70.23146725972494L209.304,26.582901407877614L209.372,28.95798811170789L209.644,31.570504116482198L209.91600000000003,74.8985724767049L210.12,27.15605740017361L210.18800000000002,28.888327094184035L210.256,24.7731212700738L210.324,24.74854994032117L210.52800000000002,29.91235582139757L210.8,28.402061021592885L210.93599999999998,34.5077678765191L211.208,30.5124099053277L211.276,22.571539781358524L211.412,65.83331164889864L211.48,23.58976820203992L211.82000000000002,31.572595486111112L212.024,28.80485337999133L212.092,68.8617137061225L212.228,71.07135587056479L212.364,16.52900858561199L212.5,72.55559757656522L212.56799999999998,32.20398088243272L212.772,31.351966552734382L212.84,70.92150380452475L212.976,25.004409247504327L213.17999999999998,24.909371134440107L213.24800000000002,29.787609998914917L213.384,29.935713975694455L213.792,30.5649174669054L213.99599999999998,31.517429199218753L214.2,30.392027893066427L214.26799999999997,30.438656684027762L214.54,31.351317715115016L214.948,24.335853000217014L215.832,22.92293816460503L216.10399999999998,70.23734376695421L216.24,27.334213121202254L216.58,32.97940521240233L216.78400000000002,32.736570943196625L216.92,22.94912706163194L217.192,70.92229598999023L217.53199999999998,27.921577148437507L217.804,72.95556862301298L218.076,32.934348720974384L218.28,29.902381829155814L218.892,32.240554199218735L219.3,20.835871988932297L219.98,23.03078403049045L220.048,26.04932752821179L220.116,24.577836235894097L220.32000000000002,24.711333821614573L220.388,35.82696641710069L220.728,29.98962181939021L220.864,35.20844007703994L221.136,29.839710150824658L221.204,31.99313581678601L221.272,69.31923099093966L221.34,24.463393351236988L221.408,35.17353261311848L221.476,31.36063381618925L221.544,24.23648729112415L222.088,71.10619618733725L222.292,38.1722277153863L222.7,28.58598988850912L222.97199999999998,26.502059258355047L223.65200000000002,30.962633802625874L223.72,81.0580225139194L223.78799999999998,26.42247253417969L224.264,23.212585313585066L224.60399999999998,29.96991526285808L224.808,64.7782699924045L224.944,33.2727914767795L225.012,27.890734727647583L225.08,28.76510528564455L225.148,25.049852023654523L225.42,31.21824262830947L225.964,29.903498433430997L226.03199999999998,22.972611965603306L226.236,31.018983086480034L226.372,20.14393948025173L226.44,22.581740112304686L226.576,28.093159993489593L226.91600000000003,34.96325792100694L227.392,26.684512396918393L227.52800000000002,24.831854654947932L227.73200000000003,22.859382256401915L227.868,24.168839179144953L228.208,24.832216796875002L228.412,21.839982910156266L228.616,30.001409539116764L229.228,29.843017713758684L229.296,33.4326047092014L229.5,20.400366143120664L229.704,31.843483683268232L229.84,27.25998609754774L229.908,22.08512281629774L230.316,74.52612346225314L230.52,22.318275824652773L230.588,68.37513981289332L230.724,28.46971516927084L230.928,24.995041842990446L231.06400000000002,30.532375996907547L231.2,27.91160013834636L231.404,31.744658169216592L231.47199999999998,29.977800903320315L231.54,34.65257636176216L232.016,65.716830206977L232.356,32.91750610351562L232.492,49.025382859971785L232.56,39.81397399902343L232.628,78.3928828075197L232.89999999999998,37.715865512424045L232.96800000000002,28.9305649142795L233.308,56.69426779852974L233.376,53.75296162923178L233.648,31.223689846462662L233.852,24.27737311469184L233.92,23.754253065321166L234.056,31.68232449001735L234.53199999999998,24.53454820421007L234.60000000000002,29.300725267198345L234.94,44.78161665174696L235.756,29.830665656195748L236.096,19.544057413736994L236.23200000000003,23.799931233723953L236.3,32.080867716471346L236.50400000000002,26.310456000434016L236.572,24.2790027533637L237.184,26.40778164333767L237.592,40.21040473090278L237.864,29.640016038682717L237.93200000000002,67.04680473327636" style="fill: none;" fill="none"></path></g></g></g></g></g></g><g transform="translate(58, 178)" clip-path="url(#clip_1)"><clipPath id="clip_1"><rect width="272" height="22"></rect></clipPath><g><g><line x1="0" y1="0" x2="0" y2="5" style="visibility: inherit;" fill="rgb(0, 0, 0)" stroke="rgb(204, 204, 204)" stroke-width="1px"></line><line x1="34" y1="0" x2="34" y2="5" style="visibility: inherit;" fill="rgb(0, 0, 0)" stroke="rgb(204, 204, 204)" stroke-width="1px"></line><line x1="68" y1="0" x2="68" y2="5" style="visibility: inherit;" fill="rgb(0, 0, 0)" stroke="rgb(204, 204, 204)" stroke-width="1px"></line><line x1="102" y1="0" x2="102" y2="5" style="visibility: inherit;" fill="rgb(0, 0, 0)" stroke="rgb(204, 204, 204)" stroke-width="1px"></line><line x1="136" y1="0" x2="136" y2="5" style="visibility: inherit;" fill="rgb(0, 0, 0)" stroke="rgb(204, 204, 204)" stroke-width="1px"></line><line x1="170" y1="0" x2="170" y2="5" style="visibility: inherit;" fill="rgb(0, 0, 0)" stroke="rgb(204, 204, 204)" stroke-width="1px"></line><line x1="204" y1="0" x2="204" y2="5" style="visibility: inherit;" fill="rgb(0, 0, 0)" stroke="rgb(204, 204, 204)" stroke-width="1px"></line><line x1="238" y1="0" x2="238" y2="5" style="visibility: inherit;" fill="rgb(0, 0, 0)" stroke="rgb(204, 204, 204)" stroke-width="1px"></line><line x1="272" y1="0" x2="272" y2="5" style="visibility: inherit;" fill="rgb(0, 0, 0)" stroke="rgb(204, 204, 204)" stroke-width="1px"></line></g><g transform="translate(0, 8)"><text x="0" y="0" dx="0em" dy="0.95em" style="text-anchor: middle; visibility: hidden; font-family: &quot;Helvetica Neue&quot;, sans-serif; font-size: 12px; font-weight: 200;" fill="rgb(50, 49, 63)" stroke="none" stroke-width="1px">-500</text><text x="34" y="0" dx="0em" dy="0.95em" style="text-anchor: middle; visibility: inherit; font-family: &quot;Helvetica Neue&quot;, sans-serif; font-size: 12px; font-weight: 200;" fill="rgb(50, 49, 63)" stroke="none" stroke-width="1px">0</text><text x="68" y="0" dx="0em" dy="0.95em" style="text-anchor: middle; visibility: inherit; font-family: &quot;Helvetica Neue&quot;, sans-serif; font-size: 12px; font-weight: 200;" fill="rgb(50, 49, 63)" stroke="none" stroke-width="1px">500</text><text x="102" y="0" dx="0em" dy="0.95em" style="text-anchor: middle; visibility: inherit; font-family: &quot;Helvetica Neue&quot;, sans-serif; font-size: 12px; font-weight: 200;" fill="rgb(50, 49, 63)" stroke="none" stroke-width="1px">1k</text><text x="136" y="0" dx="0em" dy="0.95em" style="text-anchor: middle; visibility: inherit; font-family: &quot;Helvetica Neue&quot;, sans-serif; font-size: 12px; font-weight: 200;" fill="rgb(50, 49, 63)" stroke="none" stroke-width="1px">1.5k</text><text x="170" y="0" dx="0em" dy="0.95em" style="text-anchor: middle; visibility: inherit; font-family: &quot;Helvetica Neue&quot;, sans-serif; font-size: 12px; font-weight: 200;" fill="rgb(50, 49, 63)" stroke="none" stroke-width="1px">2k</text><text x="204" y="0" dx="0em" dy="0.95em" style="text-anchor: middle; visibility: inherit; font-family: &quot;Helvetica Neue&quot;, sans-serif; font-size: 12px; font-weight: 200;" fill="rgb(50, 49, 63)" stroke="none" stroke-width="1px">2.5k</text><text x="238" y="0" dx="0em" dy="0.95em" style="text-anchor: middle; visibility: inherit; font-family: &quot;Helvetica Neue&quot;, sans-serif; font-size: 12px; font-weight: 200;" fill="rgb(50, 49, 63)" stroke="none" stroke-width="1px">3k</text><text x="272" y="0" dx="0em" dy="0.95em" style="text-anchor: middle; visibility: hidden; font-family: &quot;Helvetica Neue&quot;, sans-serif; font-size: 12px; font-weight: 200;" fill="rgb(50, 49, 63)" stroke="none" stroke-width="1px">3.5k</text></g><line x1="0" y1="0" x2="272" y2="0" fill="rgb(0, 0, 0)" stroke="rgb(204, 204, 204)" stroke-width="1px"></line></g></g></g></g></svg>